<svg id="svg" version="1.1" width="626" height="626" viewBox="0 0 626 626" xmlns="http://www.w3.org/2000/svg"><path d="M297.249 102.519 C 296.124 104.530,242.327 113.318,236.682 112.413 C 233.469 111.898,232.785 112.105,232.363 113.719 C 231.692 116.288,172.692 153.385,169.174 153.451 C 167.123 153.490,166.464 154.119,165.972 156.508 C 165.196 160.270,127.716 207.580,124.934 208.307 C 123.482 208.687,123.006 209.580,123.148 211.662 C 123.425 215.744,104.353 273.651,102.497 274.363 C 100.812 275.010,100.469 278.554,102.000 279.500 C 103.367 280.345,103.367 351.655,102.000 352.500 C 100.339 353.527,100.876 356.863,102.875 357.933 C 105.077 359.112,127.295 409.882,127.629 414.500 C 127.748 416.150,127.881 417.849,127.923 418.275 C 127.965 418.701,129.022 419.438,130.271 419.913 C 132.722 420.845,172.591 470.742,171.643 471.690 C 171.328 472.005,171.543 473.146,172.121 474.226 C 172.851 475.590,173.826 476.017,175.317 475.627 C 178.338 474.837,239.836 507.578,241.290 510.750 C 242.327 513.014,245.715 513.779,247.550 512.164 C 248.073 511.704,261.695 512.789,277.822 514.574 C 299.989 517.029,307.580 518.215,308.928 519.434 C 310.639 520.983,314.000 520.677,314.000 518.972 C 314.000 517.840,315.727 517.530,349.067 512.673 C 369.375 509.715,379.118 508.672,380.181 509.342 C 382.167 510.595,385.055 509.490,385.662 507.245 C 386.219 505.183,442.124 469.876,445.906 469.197 C 449.300 468.588,451.000 467.176,451.000 464.968 C 451.000 462.598,487.346 415.956,490.804 413.888 C 492.766 412.715,493.448 411.555,493.310 409.627 C 493.010 405.435,512.663 349.759,515.019 348.128 C 517.255 346.579,517.665 343.192,515.706 342.441 C 514.688 342.050,514.350 334.364,514.123 306.483 C 513.869 275.222,514.023 270.835,515.418 269.440 C 517.536 267.321,517.420 264.923,515.170 264.334 C 513.090 263.790,487.697 209.543,488.034 206.360 C 488.395 202.943,488.016 202.172,485.564 201.333 C 482.368 200.240,445.195 153.452,444.794 150.018 C 444.556 147.982,443.926 147.480,441.500 147.393 C 437.908 147.265,378.547 114.000,375.462 110.387 C 373.455 108.036,370.583 107.248,369.632 108.787 C 369.364 109.220,354.375 108.270,336.323 106.676 C 311.726 104.505,303.300 103.430,302.700 102.389 C 301.635 100.539,298.313 100.618,297.249 102.519 M345.467 109.355 L 369.434 111.503 357.967 116.896 C 341.941 124.433,341.825 124.426,322.752 114.876 C 314.088 110.538,307.000 106.747,307.000 106.452 C 307.000 106.158,310.262 106.207,314.250 106.562 C 318.238 106.916,332.285 108.173,345.467 109.355 M291.450 107.905 C 288.668 110.556,262.040 124.853,259.370 125.129 C 255.660 125.514,236.506 115.779,239.673 115.119 C 245.900 113.821,287.021 107.208,289.450 107.114 C 291.241 107.045,292.027 107.356,291.450 107.905 M321.500 116.280 L 338.500 124.894 326.000 125.029 C 319.125 125.104,312.375 125.315,311.000 125.498 C 309.625 125.682,298.150 126.088,285.500 126.400 L 262.500 126.967 270.000 122.625 C 274.125 120.237,281.775 115.800,287.000 112.765 C 299.716 105.379,300.054 105.414,321.500 116.280 M394.934 129.776 C 418.659 148.565,418.470 148.398,414.499 147.055 C 411.224 145.947,367.311 132.285,354.587 128.415 C 347.042 126.120,345.155 125.307,346.083 124.750 C 346.313 124.612,351.620 121.999,357.877 118.942 C 366.338 114.808,370.037 113.499,372.311 113.832 C 374.350 114.132,381.882 119.440,394.934 129.776 M252.462 125.668 C 255.154 127.186,255.955 128.071,254.962 128.432 C 198.486 148.978,186.340 153.262,187.500 152.228 C 188.050 151.738,191.200 149.318,194.500 146.851 C 197.800 144.384,207.405 137.043,215.844 130.537 C 224.515 123.853,232.561 118.413,234.344 118.030 C 237.535 117.343,238.128 117.593,252.462 125.668 M416.840 137.000 L 437.027 148.500 431.368 148.804 C 428.255 148.972,425.234 148.634,424.654 148.054 C 424.074 147.474,422.668 147.000,421.528 147.000 C 419.868 147.000,389.428 124.014,385.500 119.795 C 384.372 118.583,388.221 120.696,416.840 137.000 M320.100 145.740 C 304.652 160.666,300.120 164.508,297.828 164.624 C 295.960 164.718,294.456 164.062,293.539 162.752 C 292.762 161.643,285.282 153.812,276.915 145.349 C 268.549 136.887,261.971 129.695,262.298 129.368 C 262.948 128.719,299.331 127.417,323.997 127.161 L 339.495 127.000 320.100 145.740 M362.647 153.067 C 373.941 167.449,380.516 176.614,379.670 176.795 C 378.911 176.958,361.331 175.045,340.603 172.545 C 319.875 170.045,302.709 168.000,302.458 168.000 C 302.206 168.000,302.000 167.374,302.000 166.608 C 302.000 165.843,305.938 161.597,310.750 157.174 C 315.563 152.750,324.198 144.422,329.939 138.668 C 338.299 130.289,340.764 128.347,342.312 128.920 C 343.375 129.313,352.526 140.179,362.647 153.067 M384.267 139.567 C 403.388 145.525,418.913 150.737,418.767 151.149 C 418.620 151.560,411.561 157.095,403.080 163.448 C 392.091 171.680,386.865 175.000,384.894 175.000 C 382.478 175.000,379.855 172.101,364.065 151.973 C 354.129 139.308,346.000 128.681,346.000 128.356 C 346.000 127.601,343.781 126.951,384.267 139.567 M213.450 129.918 C 208.398 134.803,183.116 153.000,181.382 153.000 C 180.163 153.000,179.002 153.494,178.801 154.098 C 178.599 154.702,177.324 155.039,175.967 154.848 C 173.992 154.569,177.487 151.972,193.500 141.819 C 212.964 129.477,215.425 128.009,213.450 129.918 M252.676 133.666 C 251.306 135.225,242.246 145.725,232.543 157.000 C 222.088 169.148,213.940 177.760,212.544 178.138 C 210.601 178.665,207.881 176.913,197.018 168.138 C 184.928 158.373,183.998 157.388,185.674 156.129 C 187.478 154.775,254.189 130.148,254.833 130.599 C 255.016 130.727,254.045 132.107,252.676 133.666 M277.937 148.992 C 294.076 165.839,295.024 167.038,292.836 167.833 C 289.531 169.034,216.909 180.242,216.310 179.643 C 215.387 178.721,257.269 131.000,259.002 131.000 C 259.937 131.000,268.458 139.096,277.937 148.992 M440.000 152.500 C 440.685 153.325,441.836 154.000,442.559 154.000 C 443.282 154.000,450.942 162.887,459.580 173.750 C 478.128 197.073,478.143 197.094,474.970 194.415 C 465.600 186.506,428.128 154.356,426.528 152.853 C 424.596 151.038,424.700 151.000,431.655 151.000 C 436.746 151.000,439.107 151.424,440.000 152.500 M422.754 154.250 C 423.928 155.719,451.087 213.269,450.738 213.547 C 449.923 214.195,388.441 179.914,388.190 178.672 C 387.883 177.154,418.226 153.199,420.628 153.064 C 421.248 153.029,422.205 153.563,422.754 154.250 M478.000 199.769 C 480.475 201.986,482.209 204.099,481.853 204.464 C 481.497 204.829,475.705 207.171,468.981 209.668 C 459.434 213.215,456.290 213.995,454.628 213.232 C 452.622 212.309,450.087 207.286,429.415 163.262 L 425.077 154.025 449.288 174.881 C 462.605 186.352,475.525 197.552,478.000 199.769 M178.000 157.259 C 178.000 157.402,168.728 166.739,157.394 178.009 L 136.789 198.500 151.984 179.250 C 160.341 168.662,167.759 160.000,168.467 160.000 C 169.176 160.000,170.315 159.325,171.000 158.500 C 171.993 157.304,178.000 156.239,178.000 157.259 M196.807 170.276 C 204.518 176.476,208.999 180.750,208.807 181.722 C 208.530 183.120,153.067 221.400,152.353 220.686 C 151.745 220.078,179.828 160.724,181.093 159.942 C 182.761 158.911,182.281 158.596,196.807 170.276 M176.731 162.750 C 176.519 163.162,170.364 176.399,163.054 192.164 C 154.629 210.334,149.153 220.988,148.096 221.265 C 145.649 221.905,129.002 212.250,128.992 210.186 C 128.987 208.908,175.297 162.288,176.809 162.049 C 176.979 162.022,176.944 162.338,176.731 162.750 M294.663 171.437 C 294.359 172.227,285.874 185.951,275.806 201.935 C 261.572 224.531,257.055 230.983,255.500 230.940 C 252.945 230.868,215.840 184.878,216.923 183.125 C 217.540 182.126,285.755 170.431,292.857 170.107 C 294.519 170.032,295.051 170.424,294.663 171.437 M312.178 170.958 C 316.205 171.484,333.000 173.558,349.500 175.566 C 366.000 177.573,379.788 179.677,380.141 180.240 C 380.493 180.804,375.813 187.393,369.740 194.883 C 363.667 202.372,355.053 213.101,350.599 218.725 C 344.030 227.018,342.051 228.908,340.122 228.725 C 338.183 228.542,334.423 223.329,319.759 200.500 C 309.868 185.100,301.552 171.938,301.280 171.250 C 300.681 169.734,302.458 169.687,312.178 170.958 M317.782 200.644 C 329.789 219.413,335.876 229.816,335.515 230.952 C 335.013 232.535,331.798 232.743,297.817 233.383 C 269.454 233.917,260.494 233.800,259.931 232.888 C 259.503 232.195,261.359 228.246,264.346 223.494 C 267.181 218.984,275.575 205.573,283.000 193.691 C 290.787 181.230,297.135 172.083,298.000 172.078 C 298.877 172.071,307.093 183.936,317.782 200.644 M414.279 196.155 C 450.986 215.971,449.973 215.393,449.957 216.500 C 449.934 218.138,411.912 239.790,409.957 239.278 C 408.701 238.950,405.163 230.995,397.599 211.499 C 387.493 185.450,386.315 182.000,387.529 182.000 C 387.820 182.000,399.858 188.370,414.279 196.155 M395.434 210.921 C 401.364 226.278,405.909 239.339,405.534 239.946 C 404.766 241.187,405.568 241.266,369.565 236.394 C 355.081 234.434,344.327 232.529,343.906 231.849 C 342.976 230.344,380.916 183.049,383.076 183.021 C 384.221 183.006,387.601 190.636,395.434 210.921 M210.000 185.393 C 210.000 187.173,188.658 241.603,187.720 242.215 C 185.705 243.530,184.100 242.854,168.228 234.000 C 158.051 228.323,153.074 225.002,153.245 224.000 C 153.385 223.175,165.875 214.116,181.000 203.870 C 206.634 186.504,210.000 184.359,210.000 185.393 M233.389 208.500 C 243.614 221.150,251.985 232.247,251.990 233.160 C 251.998 234.434,250.435 235.076,245.250 235.927 C 191.976 244.669,191.818 244.690,191.277 243.280 C 190.550 241.385,210.714 187.821,212.743 186.260 C 213.629 185.579,214.454 185.129,214.576 185.260 C 214.698 185.392,223.164 195.850,233.389 208.500 M485.013 209.250 C 486.660 213.071,499.391 271.942,498.716 272.617 C 498.575 272.759,488.856 260.488,477.118 245.349 C 461.854 225.660,456.084 217.516,456.856 216.744 C 458.181 215.419,479.817 207.193,482.271 207.081 C 483.246 207.036,484.479 208.012,485.013 209.250 M137.441 218.727 C 142.085 221.327,146.067 224.149,146.289 224.998 C 146.679 226.489,113.084 281.417,112.276 280.610 C 111.904 280.237,122.977 225.994,125.108 217.750 C 125.671 215.572,126.689 214.000,127.537 214.000 C 128.340 214.000,132.797 216.127,137.441 218.727 M500.333 239.743 C 512.307 265.949,512.438 266.706,505.886 271.972 L 501.990 275.103 500.995 272.486 C 500.448 271.047,500.000 269.168,500.000 268.310 C 500.000 267.452,497.525 255.532,494.500 241.822 C 489.016 216.966,488.682 215.295,489.356 216.083 C 489.552 216.313,494.492 226.959,500.333 239.743 M453.466 254.565 C 454.113 285.728,453.966 292.663,452.697 290.917 C 452.531 290.687,443.333 280.320,432.257 267.878 C 416.654 250.348,412.240 244.799,412.651 243.228 C 413.000 241.891,419.538 237.420,431.841 230.107 C 442.103 224.006,451.002 219.011,451.614 219.007 C 452.399 219.002,452.947 229.520,453.466 254.565 M487.194 261.389 C 493.137 269.027,498.000 275.785,498.000 276.405 C 498.000 278.030,460.535 292.305,458.209 291.566 C 456.464 291.012,456.265 289.387,455.661 270.733 C 455.300 259.605,455.004 243.582,455.003 235.127 L 455.000 219.755 465.694 233.627 C 471.576 241.257,481.251 253.750,487.194 261.389 M167.703 235.750 C 178.354 241.752,183.510 245.229,184.119 246.822 C 184.885 248.830,182.735 252.452,168.253 273.538 C 159.039 286.954,151.162 297.946,150.750 297.965 C 150.338 297.984,150.000 282.025,150.000 262.500 C 150.000 237.607,150.325 227.000,151.087 227.000 C 151.685 227.000,159.162 230.938,167.703 235.750 M148.000 263.893 C 148.000 294.714,147.816 298.857,146.426 299.390 C 144.394 300.170,112.958 289.055,112.293 287.321 C 111.882 286.250,146.622 229.000,147.683 229.000 C 147.857 229.000,148.000 244.702,148.000 263.893 M115.003 256.484 C 112.236 269.564,109.688 281.394,109.342 282.772 L 108.714 285.277 107.492 282.389 C 106.821 280.800,106.622 278.837,107.051 278.026 C 107.480 277.215,107.440 275.821,106.962 274.929 C 106.370 273.823,108.203 266.740,112.724 252.663 C 116.370 241.310,119.507 232.174,119.695 232.361 C 119.882 232.549,117.771 243.404,115.003 256.484 M335.491 235.972 C 336.399 238.832,301.115 301.385,298.385 301.756 C 295.623 302.131,258.459 239.112,260.336 237.236 C 261.275 236.297,270.010 235.778,294.052 235.234 C 311.898 234.830,328.377 234.371,330.671 234.214 C 334.133 233.977,334.953 234.276,335.491 235.972 M364.000 237.611 C 369.775 238.403,381.220 239.934,389.434 241.014 C 398.361 242.188,404.701 243.486,405.194 244.239 C 406.392 246.068,406.012 247.228,395.072 275.117 C 387.324 294.870,384.726 300.500,383.360 300.500 C 382.128 300.500,375.855 291.020,362.302 268.676 C 351.686 251.173,343.000 236.377,343.000 235.797 C 343.000 235.101,344.783 234.985,348.250 235.457 C 351.137 235.851,358.225 236.820,364.000 237.611 M252.178 239.000 C 251.719 241.141,215.783 306.000,215.056 306.000 C 214.724 306.000,212.132 300.488,209.295 293.750 C 206.458 287.012,201.121 274.333,197.435 265.574 C 192.455 253.741,190.985 249.244,191.716 248.074 C 192.439 246.918,199.975 245.262,220.100 241.838 C 249.232 236.881,252.699 236.574,252.178 239.000 M347.123 247.250 C 350.200 252.338,356.437 262.575,360.985 270.000 C 376.934 296.041,380.751 302.785,380.120 303.806 C 379.714 304.463,365.924 305.071,341.992 305.488 C 304.956 306.132,304.485 306.115,303.258 304.096 C 302.151 302.275,303.988 298.563,320.109 270.026 C 332.512 248.072,338.725 238.000,339.866 238.000 C 340.895 238.000,343.665 241.531,347.123 247.250 M263.265 249.250 C 266.265 254.338,274.632 268.479,281.858 280.675 C 290.057 294.513,294.768 303.441,294.391 304.425 C 294.058 305.291,292.822 306.026,291.643 306.057 C 290.464 306.089,273.975 306.919,255.000 307.902 C 214.072 310.023,215.195 310.242,220.428 301.167 C 222.226 298.050,230.568 283.012,238.968 267.750 C 250.123 247.480,254.721 240.000,256.025 240.000 C 257.217 240.000,259.623 243.074,263.265 249.250 M430.033 268.000 C 439.546 278.725,448.467 288.740,449.858 290.257 C 451.413 291.952,452.024 293.357,451.443 293.906 C 450.605 294.699,393.572 304.000,389.545 304.000 C 388.661 304.000,387.689 303.353,387.385 302.562 C 386.674 300.708,406.762 248.906,408.838 247.240 C 410.101 246.227,410.637 246.227,411.573 247.240 C 412.213 247.933,420.520 257.275,430.033 268.000 M200.792 278.250 C 211.118 302.418,212.662 306.705,211.476 307.920 C 210.279 309.145,206.294 308.871,182.377 305.920 C 165.279 303.810,154.165 302.004,153.360 301.206 C 152.289 300.144,153.140 298.354,158.109 291.206 C 161.439 286.418,169.189 275.198,175.332 266.272 C 181.474 257.347,187.000 250.035,187.611 250.022 C 188.222 250.010,194.153 262.712,200.792 278.250 M512.892 301.717 C 513.007 319.161,512.895 333.224,512.643 332.967 C 512.392 332.710,510.092 321.475,507.532 308.000 C 504.442 291.732,503.093 282.324,503.516 280.000 C 504.151 276.505,509.370 270.000,511.538 270.000 C 512.370 270.000,512.740 278.678,512.892 301.717 M498.987 281.250 C 498.967 283.236,485.248 355.086,484.804 355.530 C 484.584 355.750,478.466 343.008,471.209 327.215 C 462.295 307.817,458.199 297.820,458.584 296.403 C 459.036 294.739,463.010 292.840,477.827 287.210 C 488.097 283.306,497.063 280.088,497.750 280.057 C 498.438 280.025,498.994 280.563,498.987 281.250 M106.275 286.727 C 105.977 287.501,106.232 289.117,106.839 290.317 C 107.654 291.927,107.594 296.702,106.610 308.500 L 105.275 324.500 105.153 303.500 C 105.079 290.856,105.386 283.061,105.923 283.909 C 106.413 284.684,106.572 285.952,106.275 286.727 M506.594 313.129 C 511.341 338.349,511.751 341.572,510.512 343.900 C 509.084 346.582,488.701 358.034,487.497 356.831 C 487.165 356.498,489.954 340.015,493.696 320.201 C 497.438 300.388,500.678 284.353,500.896 284.568 C 501.114 284.783,503.678 297.636,506.594 313.129 M145.538 303.654 C 146.307 304.669,146.945 305.725,146.956 306.000 C 146.967 306.275,145.156 311.450,142.931 317.500 C 140.707 323.550,136.120 336.150,132.738 345.500 L 126.589 362.500 125.432 357.000 C 124.796 353.975,121.280 338.084,117.618 321.686 C 113.957 305.288,111.182 291.514,111.452 291.077 C 112.213 289.847,143.949 301.557,145.538 303.654 M115.398 320.500 C 118.030 332.600,121.290 347.405,122.642 353.399 C 123.995 359.394,124.741 364.654,124.301 365.088 C 123.115 366.259,108.118 356.785,106.658 353.943 C 105.636 351.954,105.772 346.434,107.391 324.240 C 108.485 309.247,109.657 297.322,109.996 297.740 C 110.336 298.158,112.766 308.400,115.398 320.500 M452.211 299.000 C 451.429 303.062,423.379 371.919,422.603 371.679 C 421.624 371.377,419.528 367.770,400.134 333.010 C 390.297 315.380,387.328 309.255,388.007 307.987 C 388.704 306.685,393.466 305.584,409.203 303.085 C 420.366 301.312,433.100 299.254,437.500 298.511 C 447.651 296.796,452.604 296.961,452.211 299.000 M469.654 328.330 C 476.953 344.117,482.687 357.652,482.397 358.408 C 481.834 359.875,426.282 374.273,425.587 373.132 C 424.918 372.033,454.455 299.012,455.442 299.327 C 455.959 299.492,462.355 312.544,469.654 328.330 M181.204 307.538 C 196.217 309.484,209.063 311.270,209.750 311.507 C 212.007 312.284,211.095 315.002,202.928 331.849 C 198.488 341.007,191.883 354.698,188.250 362.274 C 184.618 369.850,181.163 375.897,180.573 375.713 C 179.375 375.338,152.127 308.505,152.050 305.750 C 152.022 304.788,152.429 304.000,152.954 304.000 C 153.479 304.000,166.192 305.592,181.204 307.538 M163.489 340.500 C 171.002 359.200,177.387 375.059,177.678 375.742 C 178.832 378.447,174.099 378.084,155.694 374.054 C 129.587 368.339,129.207 368.228,128.534 366.107 C 128.192 365.029,131.967 353.066,137.601 337.380 C 149.475 304.319,148.974 305.640,149.442 306.111 C 149.655 306.325,155.976 321.800,163.489 340.500 M380.298 308.334 C 380.610 309.147,373.003 324.065,363.059 342.144 C 348.157 369.237,344.908 374.500,343.088 374.500 C 341.311 374.500,337.394 368.753,321.616 343.000 C 305.874 317.305,302.512 311.185,303.374 309.791 C 304.657 307.714,306.474 307.610,348.620 307.190 C 375.124 306.926,379.823 307.096,380.298 308.334 M294.400 309.601 C 295.321 312.001,260.705 377.424,258.335 377.762 C 256.909 377.966,253.720 373.281,244.038 356.762 C 237.183 345.068,228.711 330.655,225.210 324.733 C 221.709 318.812,219.028 313.412,219.252 312.733 C 219.549 311.837,228.244 311.062,251.080 309.898 C 294.382 307.689,293.669 307.694,294.400 309.601 M402.749 341.498 C 412.279 358.470,419.849 372.951,419.570 373.678 C 419.291 374.405,418.036 375.008,416.781 375.017 C 415.527 375.027,399.650 375.911,381.501 376.982 C 355.633 378.509,348.255 378.667,347.361 377.715 C 346.493 376.790,350.433 368.859,363.863 344.500 C 384.414 307.223,382.880 309.793,384.302 310.267 C 384.917 310.472,393.218 324.526,402.749 341.498 M319.162 342.403 C 341.285 378.480,340.061 376.284,339.007 377.989 C 337.884 379.805,262.923 382.494,261.849 380.756 C 261.481 380.160,264.745 372.884,269.102 364.586 C 273.459 356.289,281.391 341.116,286.730 330.869 C 295.003 314.989,296.760 312.258,298.630 312.369 C 300.385 312.474,304.492 318.481,319.162 342.403 M236.245 346.965 C 248.936 368.561,254.780 379.410,254.340 380.557 C 253.770 382.042,252.568 382.176,244.595 381.640 C 239.593 381.303,223.933 380.730,209.795 380.365 C 187.369 379.786,184.047 379.498,183.758 378.101 C 183.576 377.220,188.783 365.475,195.329 352.000 C 201.876 338.525,208.511 324.688,210.074 321.250 C 214.946 310.537,214.690 310.286,236.245 346.965 M510.545 349.750 C 510.177 350.712,505.071 362.872,499.198 376.770 C 490.666 396.964,488.390 401.549,487.867 399.595 C 487.507 398.251,487.053 389.579,486.857 380.325 C 486.545 365.603,486.717 363.194,488.233 361.051 C 489.728 358.940,507.939 348.251,510.357 348.066 C 510.828 348.030,510.913 348.788,510.545 349.750 M116.250 363.684 C 119.963 366.051,123.000 368.627,123.000 369.410 C 123.000 370.193,123.402 370.983,123.893 371.167 C 124.384 371.350,125.533 378.700,126.445 387.500 C 127.358 396.300,128.330 405.075,128.606 407.000 C 128.881 408.925,124.133 399.037,118.053 385.027 C 111.974 371.017,107.000 359.178,107.000 358.718 C 107.000 357.781,106.936 357.746,116.250 363.684 M480.655 366.250 C 465.738 392.353,466.061 391.782,453.193 414.750 C 448.494 423.137,444.390 429.998,444.074 429.995 C 443.759 429.992,439.498 418.905,434.606 405.357 C 427.334 385.217,425.877 380.246,426.617 378.111 C 427.472 375.648,428.995 375.123,453.512 368.838 C 467.805 365.173,480.306 362.136,481.292 362.088 C 482.907 362.009,482.844 362.420,480.655 366.250 M485.277 384.750 C 485.749 401.134,485.604 404.689,484.423 405.610 C 483.640 406.221,483.000 407.355,483.000 408.129 C 483.000 408.904,476.813 413.112,469.250 417.479 C 449.235 429.039,446.602 430.464,447.174 429.431 C 462.434 401.900,483.549 365.000,484.043 365.000 C 484.409 365.000,484.964 373.887,485.277 384.750 M154.000 375.556 C 168.629 378.765,176.049 380.843,177.219 382.060 C 178.846 383.754,178.749 384.825,175.407 402.174 C 173.466 412.254,171.195 424.322,170.362 428.993 C 169.529 433.664,168.722 437.611,168.569 437.764 C 168.365 437.969,131.493 376.641,128.192 370.604 C 127.922 370.111,128.781 369.963,130.101 370.274 C 131.420 370.585,142.175 372.962,154.000 375.556 M165.139 436.331 C 165.840 437.592,164.378 437.024,160.444 434.507 C 157.301 432.497,150.066 427.924,144.365 424.346 C 138.426 420.617,134.000 417.173,134.000 416.280 C 134.000 415.422,133.366 414.221,132.590 413.610 C 131.638 412.860,130.661 407.630,129.581 397.500 C 128.701 389.250,127.734 380.250,127.433 377.500 C 126.913 372.764,127.867 374.136,145.503 403.500 C 155.743 420.550,164.579 435.324,165.139 436.331 M419.340 378.316 C 418.946 380.326,374.688 440.000,373.591 440.000 C 372.914 440.000,369.053 432.913,365.011 424.250 C 360.969 415.587,355.025 402.905,351.801 396.066 C 346.659 385.159,346.118 383.453,347.401 382.171 C 348.527 381.044,355.577 380.309,378.181 378.960 C 408.943 377.125,419.606 376.958,419.340 378.316 M432.670 405.252 C 440.035 425.532,441.594 430.754,440.592 431.792 C 439.883 432.527,430.755 434.335,419.422 435.986 C 408.465 437.583,394.645 439.620,388.711 440.515 C 382.777 441.409,377.484 441.995,376.950 441.817 C 375.548 441.349,420.207 380.130,422.000 380.062 C 423.066 380.021,426.153 387.309,432.670 405.252 M339.248 382.250 C 339.501 382.938,331.995 394.075,322.566 407.000 C 308.266 426.604,305.018 430.500,302.975 430.500 C 301.035 430.500,297.019 426.441,283.681 411.000 C 263.619 387.774,261.521 385.145,262.374 384.293 C 262.732 383.934,278.208 383.113,296.763 382.468 C 315.318 381.823,332.364 381.229,334.643 381.147 C 337.163 381.058,338.967 381.490,339.248 382.250 M495.857 393.599 C 491.623 405.669,490.539 407.873,489.399 406.732 C 489.049 406.383,491.170 400.478,494.111 393.611 C 497.052 386.744,499.587 381.254,499.745 381.411 C 499.902 381.569,498.152 387.053,495.857 393.599 M231.268 382.902 C 257.985 383.841,257.248 383.413,252.875 395.467 C 239.758 431.624,235.330 443.033,234.256 443.450 C 233.186 443.865,185.148 385.873,184.167 382.982 C 183.773 381.823,199.826 381.796,231.268 382.902 M203.500 410.208 C 230.782 444.130,231.400 444.934,230.711 445.622 C 230.177 446.156,218.867 445.173,185.247 441.671 C 178.508 440.969,172.464 439.864,171.815 439.215 C 170.909 438.309,171.145 435.307,172.833 426.268 C 174.041 419.795,176.163 408.425,177.547 401.000 C 180.370 385.859,180.844 383.979,181.817 384.049 C 182.193 384.075,191.950 395.847,203.500 410.208 M357.683 412.819 C 364.857 428.044,370.376 440.890,369.947 441.367 C 369.018 442.398,308.919 435.258,307.583 433.958 C 306.196 432.609,307.118 431.165,324.939 406.780 C 336.787 390.570,341.834 384.405,343.009 384.713 C 344.007 384.974,349.695 395.867,357.683 412.819 M277.723 406.750 C 301.323 434.154,300.405 432.995,299.338 434.062 C 297.670 435.730,238.650 446.051,237.882 444.809 C 237.504 444.198,237.775 442.078,238.484 440.099 C 240.346 434.900,255.931 392.312,257.026 389.431 C 257.535 388.094,258.573 387.000,259.333 387.000 C 260.093 387.000,268.369 395.887,277.723 406.750 M482.376 413.250 C 481.968 413.938,478.216 419.450,474.039 425.500 C 469.861 431.550,462.630 442.220,457.971 449.211 C 453.312 456.201,449.248 461.939,448.940 461.961 C 448.632 461.982,447.651 456.398,446.760 449.551 C 445.509 439.939,445.402 436.547,446.288 434.668 C 447.037 433.083,453.373 428.745,464.468 422.221 C 481.931 411.954,483.659 411.089,482.376 413.250 M487.357 413.250 C 486.189 415.166,469.889 436.300,468.266 438.000 C 467.479 438.825,471.013 433.313,476.120 425.750 C 481.227 418.188,486.015 412.000,486.761 412.000 C 487.586 412.000,487.820 412.490,487.357 413.250 M151.513 431.076 C 159.481 436.068,166.000 440.770,166.000 441.526 C 166.000 442.282,166.599 443.260,167.331 443.700 C 168.430 444.361,173.387 468.000,172.426 468.000 C 172.269 468.000,164.616 458.438,155.420 446.750 C 146.224 435.063,138.023 424.712,137.195 423.750 C 136.367 422.788,135.991 422.000,136.358 422.000 C 136.726 422.000,143.545 426.084,151.513 431.076 M413.000 461.935 C 397.875 476.719,385.180 488.514,384.788 488.146 C 384.396 487.777,382.042 478.574,379.557 467.694 C 375.911 451.734,375.264 447.550,376.210 446.036 C 377.125 444.570,379.912 443.786,388.941 442.455 C 395.298 441.518,408.375 439.507,418.000 437.986 C 427.625 436.465,436.625 435.183,438.000 435.137 C 440.003 435.070,435.035 440.396,413.000 461.935 M444.972 450.607 C 446.097 460.506,446.059 461.980,444.624 464.170 C 443.402 466.035,436.596 469.221,416.406 477.379 C 401.771 483.292,389.672 487.989,389.520 487.815 C 389.368 487.642,401.209 475.894,415.834 461.710 C 437.137 441.049,442.554 436.276,443.068 437.710 C 443.422 438.694,444.279 444.498,444.972 450.607 M301.112 438.291 C 302.380 439.257,303.161 444.112,304.767 461.009 C 305.891 472.829,306.493 482.837,306.106 483.249 C 305.718 483.662,290.447 476.063,272.169 466.364 C 253.891 456.666,239.184 448.483,239.485 448.181 C 240.092 447.575,294.305 437.255,297.500 437.137 C 298.600 437.097,300.225 437.616,301.112 438.291 M339.804 440.581 C 355.584 442.551,368.684 444.351,368.915 444.581 C 369.506 445.173,371.277 443.960,339.123 464.991 C 321.500 476.518,309.483 483.781,309.089 483.144 C 308.063 481.483,304.629 439.410,305.416 438.136 C 306.425 436.503,308.068 436.620,339.804 440.581 M190.000 444.021 C 221.609 446.951,230.193 448.193,232.113 450.113 C 233.837 451.837,234.000 453.732,234.000 472.000 C 234.000 483.000,233.627 492.000,233.171 492.000 C 232.715 492.000,224.039 485.137,213.892 476.750 C 203.745 468.363,190.062 457.072,183.485 451.660 C 172.681 442.770,171.864 441.875,175.014 442.388 C 176.931 442.700,183.675 443.434,190.000 444.021 M192.500 461.593 C 202.400 469.782,213.813 479.185,217.862 482.491 C 221.911 485.796,226.186 489.288,227.362 490.252 C 229.427 491.943,229.363 491.955,225.500 490.605 C 223.300 489.836,211.927 485.597,200.227 481.185 C 179.597 473.406,175.993 471.414,174.574 467.000 C 173.835 464.701,171.007 447.749,171.003 445.595 C 171.000 443.873,171.168 443.835,172.750 445.198 C 173.713 446.027,182.600 453.405,192.500 461.593 M371.891 447.911 C 373.169 448.721,381.931 483.885,381.980 488.400 C 381.999 490.182,381.390 490.261,372.250 489.666 C 366.887 489.318,351.475 488.337,338.000 487.487 C 324.525 486.637,312.961 485.842,312.302 485.721 C 311.297 485.535,368.516 447.212,370.000 447.076 C 370.275 447.051,371.126 447.427,371.891 447.911 M281.346 473.333 C 307.835 487.437,308.099 485.670,279.000 488.989 C 268.825 490.149,255.603 491.758,249.619 492.563 C 241.462 493.660,238.395 493.743,237.369 492.891 C 236.293 491.998,236.000 487.428,236.000 471.544 C 236.000 460.428,236.300 451.034,236.666 450.668 C 237.342 449.991,240.870 451.781,281.346 473.333 M434.450 472.888 C 433.134 474.117,385.188 504.000,384.531 504.000 C 384.239 504.000,384.000 502.023,384.000 499.607 C 384.000 496.625,384.482 495.029,385.500 494.638 C 386.325 494.322,387.000 493.426,387.000 492.648 C 387.000 491.741,395.342 487.827,410.250 481.742 C 433.722 472.161,436.197 471.255,434.450 472.888 M212.000 487.613 C 232.465 495.311,232.000 495.102,232.000 496.602 C 232.000 497.350,233.012 498.217,234.250 498.529 C 236.269 499.037,241.962 506.000,240.358 506.000 C 239.437 506.000,192.000 480.931,192.000 480.445 C 192.000 480.227,193.238 480.524,194.750 481.104 C 196.262 481.684,204.025 484.613,212.000 487.613 M306.092 489.282 C 307.191 490.123,307.894 492.978,308.363 498.500 C 308.736 502.900,309.308 508.413,309.634 510.750 C 310.387 516.143,310.435 516.142,292.994 511.096 C 285.572 508.949,270.817 504.674,260.205 501.596 C 249.593 498.518,240.593 495.953,240.205 495.897 C 239.183 495.747,299.026 488.238,302.000 488.143 C 303.375 488.100,305.216 488.612,306.092 489.282 M347.500 489.991 C 363.450 491.078,376.950 491.992,377.500 492.023 C 379.276 492.121,373.048 494.462,343.154 504.931 C 324.969 511.299,313.452 514.852,312.873 514.273 C 311.837 513.237,308.893 489.983,309.644 488.767 C 310.340 487.641,315.419 487.805,347.500 489.991 M382.151 498.832 C 381.977 501.215,381.067 503.933,380.128 504.872 C 378.849 506.151,371.845 507.540,352.172 510.418 C 337.735 512.529,325.731 514.065,325.497 513.830 C 325.262 513.596,332.367 510.804,341.285 507.625 C 350.203 504.447,362.225 500.099,368.000 497.963 C 381.355 493.022,382.570 493.097,382.151 498.832 M274.210 507.570 C 287.251 511.333,297.818 514.515,297.693 514.641 C 297.567 514.766,286.673 513.711,273.482 512.295 C 258.010 510.635,248.940 509.239,247.921 508.361 C 247.053 507.612,245.837 507.000,245.219 507.000 C 244.227 507.000,238.000 498.926,238.000 497.640 C 238.000 497.366,240.813 497.948,244.250 498.934 C 247.688 499.920,261.170 503.806,274.210 507.570 " stroke="none" fill="black" fill-rule="evenodd"/></svg>